<?xml version="1.0" encoding="UTF-8" standalone="no"?><!DOCTYPE svg PUBLIC "-//W3C//DTD SVG 1.1//EN" "http://www.w3.org/Graphics/SVG/1.1/DTD/svg11.dtd"><svg width="100%" height="100%" viewBox="0 0 110 100" version="1.1" xmlns="http://www.w3.org/2000/svg" xmlns:xlink="http://www.w3.org/1999/xlink" xml:space="preserve" xmlns:serif="http://www.serif.com/" style="fill-rule:evenodd;clip-rule:evenodd;stroke-linejoin:round;stroke-miterlimit:2;"><g id="SteelPath"><g id="Small"><path d="M54.855,38.731c0,0 -7.282,15.243 -33.694,29.431c-6.37,3.422 4.301,28.751 8.829,31.77c0,0 -7.471,-8.678 -5.358,-21.733c0,0 0.528,-7.169 30.223,-19.545l0,-19.922Z" style="fill:#fff;"/><path d="M54.685,38.731c0,0 7.282,15.243 33.694,29.431c6.37,3.422 -4.301,28.751 -8.829,31.77c0,0 7.471,-8.678 5.358,-21.733c0,0 -0.528,-7.169 -30.223,-19.545l0,-19.922Z" style="fill:#fff;"/></g><g id="Big"><path d="M54.901,0c0,0 -11.208,23.461 -51.859,45.297c-9.804,5.266 6.62,44.251 13.589,48.897c0,0 -11.498,-13.357 -8.246,-33.45c0,0 0.813,-11.034 46.516,-30.082l0,-30.662Z" style="fill:#fff;"/><path d="M54.64,0c0,0 11.208,23.461 51.859,45.297c9.804,5.266 -6.62,44.251 -13.589,48.897c0,0 11.498,-13.357 8.246,-33.45c0,0 -0.813,-11.034 -46.516,-30.082l0,-30.662Z" style="fill:#fff;"/></g></g></svg>