<?xml version="1.0" encoding="UTF-8" standalone="no"?><!DOCTYPE svg PUBLIC "-//W3C//DTD SVG 1.1//EN" "http://www.w3.org/Graphics/SVG/1.1/DTD/svg11.dtd"><svg width="100%" height="100%" viewBox="0 0 89 97" version="1.1" xmlns="http://www.w3.org/2000/svg" xmlns:xlink="http://www.w3.org/1999/xlink" xml:space="preserve" xmlns:serif="http://www.serif.com/" style="fill-rule:evenodd;clip-rule:evenodd;stroke-linejoin:round;stroke-miterlimit:2;"><g id="Rifle"><path d="M30.053,53.393l33.037,-32.504l-0.107,-2.451l-6.675,-6.765l0,-3.04l1.24,-1.812l0.32,-4.156l2.345,-2.664c0,0 1.89,0.046 3.183,0.078c0.68,0.017 1.243,0.532 1.321,1.208c0.125,1.093 0.292,2.551 0.292,2.551l9.165,8.739l2.025,-0.903l0.426,2.075l1.705,0.107l0.107,1.812l1.918,0.32l0.213,1.599l2.238,0.426l0.213,2.131l1.883,1.27l-5.811,5.641l-3.959,-0.623l-18.824,18.544l1.453,2.238l-13.215,14.067c0,0 -0.193,4.309 -0.279,6.232c-0.026,0.58 -0.288,1.124 -0.725,1.507c-0.126,0.111 -0.258,0.226 -0.383,0.335c-0.41,0.359 -0.942,0.547 -1.486,0.525c-2.077,-0.082 -7.252,-0.286 -7.252,-0.286l0,-9.599c-0,-1.494 -0.603,-2.925 -1.673,-3.969c-1.233,-1.203 -2.697,-2.631 -2.697,-2.631Z" style="fill:#fff;"/><path d="M53.588,55.995c-0.348,-0.384 -0.336,-0.973 0.029,-1.342c1.053,-1.065 3.124,-3.159 4.202,-4.249c0.183,-0.185 0.431,-0.289 0.691,-0.29c0.26,-0.001 0.509,0.102 0.692,0.286c0.405,0.405 0.913,0.913 1.317,1.317c0.379,0.379 0.381,0.993 0.005,1.375c-1.076,1.09 -3.159,3.201 -4.261,4.317c-0.188,0.191 -0.447,0.296 -0.714,0.29c-0.268,-0.006 -0.522,-0.121 -0.702,-0.319c-0.392,-0.432 -0.878,-0.967 -1.258,-1.385Z" style="fill:#fff;"/><path d="M60.19,49.468c-0.35,-0.385 -0.336,-0.976 0.031,-1.344c2.964,-2.973 15.103,-15.151 18.136,-18.194c0.183,-0.183 0.431,-0.287 0.69,-0.287c0.259,-0 0.507,0.103 0.69,0.286c0.404,0.404 0.912,0.912 1.316,1.316c0.38,0.38 0.381,0.997 0.001,1.378c-3.02,3.031 -15.102,15.16 -18.194,18.264c-0.189,0.189 -0.446,0.293 -0.714,0.287c-0.267,-0.006 -0.52,-0.122 -0.7,-0.319c-0.392,-0.431 -0.878,-0.967 -1.259,-1.386Z" style="fill:#fff;"/><path d="M80.848,28.735c-0.348,-0.384 -0.336,-0.973 0.029,-1.342c1.053,-1.065 3.124,-3.159 4.202,-4.249c0.183,-0.185 0.431,-0.289 0.691,-0.29c0.26,-0.001 0.509,0.102 0.692,0.286c0.405,0.405 0.913,0.913 1.317,1.317c0.379,0.379 0.381,0.993 0.005,1.375c-1.076,1.09 -3.159,3.201 -4.261,4.317c-0.188,0.191 -0.447,0.296 -0.714,0.29c-0.268,-0.006 -0.522,-0.121 -0.702,-0.319c-0.392,-0.432 -0.878,-0.967 -1.258,-1.385Z" style="fill:#fff;"/><path d="M77.497,10.212l-0.087,2.445l2.183,0.044l-0.087,1.964l2.226,0.262l0.044,1.659l2.555,0.437l0,2.314l2.508,-1.004l-0.175,-2.226l-3.187,-3.23l1.461,-0.175l0,-1.921l-3.207,-2.925l-1.571,0.524l-0.131,1.615l-2.532,0.218Z" style="fill:#fff;"/><path d="M36.454,72.474c-0,0 0,-0 0,-0c0.551,-0.679 1.362,-1.096 2.235,-1.148c0.873,-0.053 1.728,0.264 2.356,0.872c2.562,2.479 6.53,6.317 8.854,8.566c0.497,0.481 0.783,1.139 0.794,1.83c0.011,0.691 -0.252,1.359 -0.733,1.856c-1.67,1.726 -4.136,4.275 -5.806,6.001c-0.481,0.497 -1.139,0.783 -1.83,0.794c-0.691,0.011 -1.359,-0.252 -1.856,-0.733c-3.637,-3.519 -11.301,-10.932 -11.301,-10.932l2.315,-2.393l11.447,11.074l4.761,-4.922l-11.238,-10.865Z" style="fill:#fff;"/><path d="M7.949,94.937c-0.481,-0.421 -0.765,-1.022 -0.787,-1.66c-0.021,-0.638 0.223,-1.257 0.675,-1.708c5.665,-5.659 23.175,-23.149 23.175,-23.149l3.41,3.41c0,0 -18.097,17.767 -23.447,23.021c-0.831,0.816 -2.15,0.854 -3.026,0.087c-0,-0 -0,-0 -0,-0Z" style="fill:#fff;"/><path d="M32.524,76.324c0,0 6.569,6.503 9.304,9.21c0.658,0.651 1.711,0.675 2.397,0.053c0.205,-0.186 0.42,-0.38 0.628,-0.568c0.352,-0.319 0.559,-0.767 0.572,-1.241c0.014,-0.474 -0.166,-0.934 -0.499,-1.273c-2.812,-2.864 -9.311,-9.483 -9.311,-9.483l-3.092,3.302Z" style="fill:#fff;"/><path d="M18.496,43.818c-0.939,-0.268 -1.948,0.055 -2.556,0.819c-0.455,0.571 -1.004,1.262 -1.516,1.905c-0.944,1.186 -0.892,2.88 0.124,4.006c1.406,1.559 3.143,3.485 3.143,3.485l2.984,-3.228l0,-6.363c0,0 -1.154,-0.33 -2.179,-0.622Z" style="fill:#fff;"/><path d="M22.38,42.096c0,0 26.368,-26.368 30.097,-30.097c0.272,-0.272 0.664,-0.385 1.038,-0.299c0.484,0.11 1.167,0.266 1.687,0.385c0.451,0.103 0.792,0.473 0.857,0.931c0.074,0.521 0.172,1.201 0.239,1.671c0.05,0.348 -0.067,0.699 -0.316,0.948c-3.52,3.52 -29.392,29.392 -29.392,29.392l0.053,9.005c0,0 3.125,2.742 4.54,3.984c0.436,0.383 0.7,0.925 0.732,1.504c0.033,0.591 0.076,1.363 0.109,1.966c0.034,0.614 -0.195,1.213 -0.63,1.648c-3.645,3.645 -20.848,20.848 -26.469,26.469c-0.315,0.315 -0.786,0.416 -1.202,0.258c-0.417,-0.158 -0.701,-0.546 -0.728,-0.991c-0.141,-2.395 -0.332,-5.637 -0.332,-5.637c0,0 -0.147,0.085 -0.361,0.209c-0.364,0.211 -0.81,0.222 -1.184,0.03c-0.374,-0.192 -0.625,-0.561 -0.665,-0.98c-0.116,-1.2 -0.261,-2.698 -0.356,-3.675c-0.062,-0.643 0.176,-1.279 0.645,-1.723c3.177,-3.01 15.456,-14.642 15.456,-14.642l1.918,-7.034l4.05,-4.05" style="fill:#fff;"/></g></svg>