<?xml version="1.0" encoding="UTF-8" standalone="no"?><!DOCTYPE svg PUBLIC "-//W3C//DTD SVG 1.1//EN" "http://www.w3.org/Graphics/SVG/1.1/DTD/svg11.dtd"><svg width="100%" height="100%" viewBox="0 0 409 339" version="1.1" xmlns="http://www.w3.org/2000/svg" xmlns:xlink="http://www.w3.org/1999/xlink" xml:space="preserve" xmlns:serif="http://www.serif.com/" style="fill-rule:evenodd;clip-rule:evenodd;stroke-linejoin:round;stroke-miterlimit:2;"><g id="Archwing"><g><path d="M204.485,47.957l-39.687,-47.957l-11.545,31.083l16.43,21.758l-2.664,48.401l-19.538,26.199l21.758,20.426l35.246,-78.597l0,-21.314Z" style="fill:#fff;"/><path d="M175.483,160.302l-41.38,63.943l4.44,15.542l8.437,-4.885l28.502,-74.6Z" style="fill:#fff;"/><path d="M204.485,119.005l-6.989,7.549l0,113.233l-7.779,46.625l14.768,52.398l0,-219.805Z" style="fill:#fff;"/><path d="M9.369,258.322l-0.044,-3.881l-9.325,-6.217l0,-79.485l13.766,-14.21l15.986,34.192l2.507,0.132l-0.22,38.045l-10.004,21.371l-12.666,10.052Zm28.543,-69.171l0.276,0.015l32.86,-110.124l20.576,-21.511l-5.101,7.652l4.973,36.59l7.105,-3.197l3.908,-11.012l6.75,0.71l5.684,8.881l2.131,-11.012l-7.46,-7.105l-11.012,0l-2.668,-26.011l4.422,-4.623l46.625,-7.549l0,33.082l-59.503,160.968l-9.325,53.73l-21.758,11.989l-19.982,16.43l-13.766,-0.444l-12.877,-23.091l-0.3,-26.393l16.431,-14.535l10.686,-23.682l1.326,-39.757Zm43.283,-69.973l-1.066,20.959l-31.261,80.639l-1.776,28.064l-35.169,40.853l46.181,-36.945l44.405,-132.504l-12.078,7.46l-9.236,-8.526Z" style="fill:#fff;"/></g><g><path d="M204.485,47.957l39.687,-47.957l11.545,31.083l-16.43,21.758l2.664,48.401l19.538,26.199l-21.758,20.426l-35.246,-78.597l0,-21.314Z" style="fill:#fff;"/><path d="M233.487,160.302l41.38,63.943l-4.44,15.542l-8.437,-4.885l-28.502,-74.6Z" style="fill:#fff;"/><path d="M204.485,119.005l6.989,7.549l0,113.233l7.779,46.625l-14.768,52.398l0,-219.805Z" style="fill:#fff;"/><path d="M399.601,258.322l0.044,-3.881l9.325,-6.217l0,-79.485l-13.766,-14.21l-15.986,34.192l-2.507,0.132l0.22,38.045l10.004,21.371l12.666,10.052Zm-28.543,-69.171l-0.276,0.015l-32.86,-110.124l-20.576,-21.511l5.101,7.652l-4.973,36.59l-7.105,-3.197l-3.908,-11.012l-6.75,0.71l-5.684,8.881l-2.131,-11.012l7.46,-7.105l11.012,0l2.668,-26.011l-4.422,-4.623l-46.625,-7.549l0,33.082l59.503,160.968l9.325,53.73l21.758,11.989l19.982,16.43l13.766,-0.444l12.877,-23.091l0.3,-26.393l-16.431,-14.535l-10.686,-23.682l-1.326,-39.757Zm-43.283,-69.973l1.066,20.959l31.261,80.639l1.776,28.064l35.169,40.853l-46.181,-36.945l-44.405,-132.504l12.078,7.46l9.236,-8.526Z" style="fill:#fff;"/></g></g></svg>