<?xml version="1.0" encoding="UTF-8" standalone="no"?><!DOCTYPE svg PUBLIC "-//W3C//DTD SVG 1.1//EN" "http://www.w3.org/Graphics/SVG/1.1/DTD/svg11.dtd"><svg width="100%" height="100%" viewBox="0 0 93 83" version="1.1" xmlns="http://www.w3.org/2000/svg" xmlns:xlink="http://www.w3.org/1999/xlink" xml:space="preserve" xmlns:serif="http://www.serif.com/" style="fill-rule:evenodd;clip-rule:evenodd;stroke-linecap:round;stroke-linejoin:round;stroke-miterlimit:1.5;"><g id="Mastery"><g id="Wing"><path d="M40.395,69.681c0.083,-0.202 0.28,-0.333 0.498,-0.333c1.008,0 3.861,0 5.058,0c0.143,-0 0.28,0.057 0.381,0.158c0.101,0.101 0.158,0.238 0.158,0.381c-0,0.967 -0,2.984 -0,3.951c0,0.143 -0.057,0.28 -0.158,0.381c-0.101,0.101 -0.238,0.158 -0.381,0.158c-0.806,0 -2.287,0 -2.817,0c-0.126,-0 -0.248,0.044 -0.345,0.125c-1.013,0.842 -6.877,5.716 -8.916,7.411c-0.397,0.33 -0.979,0.306 -1.347,-0.055c-0.244,-0.239 -0.523,-0.512 -0.775,-0.759c-0.197,-0.193 -0.307,-0.46 -0.302,-0.736c0.005,-0.276 0.123,-0.539 0.327,-0.725c1.864,-1.705 6.458,-5.908 7.152,-6.543c0.058,-0.053 0.104,-0.119 0.134,-0.192c0.201,-0.485 1.006,-2.433 1.332,-3.221Z" style="fill:#fff;stroke:#fff;stroke-width:0.24px;"/><path d="M31.156,0.136c0,0 -4.434,-0.334 -7.493,2.043c-3.574,2.777 -5.453,9.023 -2.083,9.907c2.835,0.744 4.022,-2.642 5.703,-6.293c1.647,-3.576 3.873,-5.657 3.873,-5.657Z" style="fill:#fff;stroke:#fff;stroke-width:0.24px;"/><path d="M10.664,5.58c0,0 0.514,5.376 2.201,9.495c1.107,2.703 6.444,6.119 7.118,2.712c0.654,-3.305 -2.084,-3.676 -4.693,-6.465c-2.916,-3.116 -4.626,-5.742 -4.626,-5.742Z" style="fill:#fff;stroke:#fff;stroke-width:0.24px;"/><path d="M33.87,13.403c0,0 -3.891,0.547 -7.851,1.16c-3.939,0.61 -6.344,0.85 -6.182,3.158c0.207,2.954 4.756,2.585 7.882,0.632c3.164,-1.976 6.151,-4.95 6.151,-4.95Z" style="fill:#fff;stroke:#fff;stroke-width:0.24px;"/><path d="M5.236,12.167c0,0 1.046,6.73 3.477,11.79c1.595,3.32 8.567,7.225 9.163,2.886c0.578,-4.209 -2.896,-4.473 -6.389,-7.791c-3.902,-3.707 -6.251,-6.885 -6.251,-6.885Z" style="fill:#fff;stroke:#fff;stroke-width:0.24px;"/><path d="M35.034,20.292c0,0 -4.858,0.977 -9.798,2.043c-4.914,1.06 -7.924,1.541 -7.549,4.436c0.48,3.703 6.179,2.901 9.971,0.21c3.837,-2.723 7.376,-6.689 7.376,-6.689Z" style="fill:#fff;stroke:#fff;stroke-width:0.24px;"/><path d="M2.095,24.629c0,0 1.924,6.815 5.067,11.733c2.063,3.227 9.749,6.383 9.819,1.829c0.068,-4.417 -3.551,-4.254 -7.571,-7.24c-4.493,-3.337 -7.315,-6.323 -7.315,-6.323Z" style="fill:#fff;stroke:#fff;stroke-width:0.24px;"/><path d="M33.87,29.279c0,0 -4.891,1.618 -9.857,3.338c-4.939,1.711 -7.985,2.585 -7.235,5.525c0.96,3.762 6.742,2.22 10.318,-1.033c3.619,-3.292 6.775,-7.83 6.775,-7.83Z" style="fill:#fff;stroke:#fff;stroke-width:0.24px;"/><path d="M0.12,35.351c0,0 3.181,7.172 7.402,12.072c2.769,3.215 11.695,5.467 11.057,0.462c-0.619,-4.855 -4.563,-4.107 -9.441,-6.75c-5.452,-2.953 -9.017,-5.784 -9.017,-5.784Z" style="fill:#fff;stroke:#fff;stroke-width:0.24px;"/><path d="M35.699,35.456c0,0 -5.11,2.543 -10.286,5.21c-5.148,2.653 -8.351,4.09 -7.066,7.197c1.644,3.975 7.743,1.375 11.153,-2.755c3.451,-4.179 6.199,-9.652 6.199,-9.652Z" style="fill:#fff;stroke:#fff;stroke-width:0.24px;"/><path d="M4.386,50.347c0,0 4.176,5.417 8.763,8.695c3.01,2.151 11.035,2.214 9.46,-1.893c-1.527,-3.984 -4.713,-2.536 -9.391,-3.766c-5.227,-1.375 -8.832,-3.036 -8.832,-3.036Z" style="fill:#fff;stroke:#fff;stroke-width:0.24px;"/><path d="M34.541,43.085c0,0 -3.802,3.21 -7.635,6.538c-3.812,3.31 -6.228,5.189 -4.498,7.555c2.213,3.027 6.842,-0.436 8.877,-4.638c2.059,-4.253 3.256,-9.455 3.256,-9.455Z" style="fill:#fff;stroke:#fff;stroke-width:0.24px;"/><path d="M13.398,62.878c0,0 4.581,3.147 8.945,4.537c2.864,0.912 9.085,-1.041 6.843,-3.824c-2.175,-2.699 -4.277,-0.785 -8.201,-0.569c-4.385,0.241 -7.587,-0.144 -7.587,-0.144Z" style="fill:#fff;stroke:#fff;stroke-width:0.24px;"/><path d="M34.903,49.738c0,0 -2.139,3.431 -4.272,6.96c-2.122,3.511 -3.521,5.566 -1.593,6.964c2.467,1.788 5.182,-2.044 5.707,-5.801c0.531,-3.802 0.159,-8.124 0.159,-8.124Z" style="fill:#fff;stroke:#fff;stroke-width:0.24px;"/><path d="M23.219,71.352c0,0 4.488,1.53 8.394,1.666c2.563,0.089 7.223,-2.949 4.74,-4.718c-2.409,-1.716 -3.694,0.341 -6.868,1.423c-3.547,1.209 -6.266,1.63 -6.266,1.63Z" style="fill:#fff;stroke:#fff;stroke-width:0.24px;"/><path d="M37.857,55.602c0,0 -0.967,3.311 -1.906,6.703c-0.934,3.373 -1.61,5.384 0.296,6.088c2.439,0.901 3.786,-2.873 3.351,-6.081c-0.44,-3.246 -1.742,-6.71 -1.742,-6.71Z" style="fill:#fff;stroke:#fff;stroke-width:0.24px;"/><path d="M21.58,12.086c0,0 -18.897,44.978 20.714,59.172" style="fill:none;stroke:#fff;stroke-width:2.33px;"/></g><g id="Wing1" serif:id="Wing"><path d="M52.105,69.681c-0.083,-0.202 -0.28,-0.333 -0.498,-0.333c-1.008,0 -3.861,0 -5.058,0c-0.143,-0 -0.28,0.057 -0.381,0.158c-0.101,0.101 -0.158,0.238 -0.158,0.381c0,0.967 0,2.984 0,3.951c-0,0.143 0.057,0.28 0.158,0.381c0.101,0.101 0.238,0.158 0.381,0.158c0.806,0 2.287,0 2.817,0c0.126,-0 0.248,0.044 0.345,0.125c1.013,0.842 6.877,5.716 8.916,7.411c0.397,0.33 0.979,0.306 1.347,-0.055c0.244,-0.239 0.523,-0.512 0.775,-0.759c0.197,-0.193 0.307,-0.46 0.302,-0.736c-0.005,-0.276 -0.123,-0.539 -0.327,-0.725c-1.864,-1.705 -6.458,-5.908 -7.152,-6.543c-0.058,-0.053 -0.104,-0.119 -0.134,-0.192c-0.201,-0.485 -1.006,-2.433 -1.332,-3.221Z" style="fill:#fff;stroke:#fff;stroke-width:0.24px;"/><path d="M61.344,0.136c0,0 4.434,-0.334 7.493,2.043c3.574,2.777 5.453,9.023 2.083,9.907c-2.835,0.744 -4.022,-2.642 -5.703,-6.293c-1.647,-3.576 -3.873,-5.657 -3.873,-5.657Z" style="fill:#fff;stroke:#fff;stroke-width:0.24px;"/><path d="M81.836,5.58c0,0 -0.514,5.376 -2.201,9.495c-1.107,2.703 -6.444,6.119 -7.118,2.712c-0.654,-3.305 2.084,-3.676 4.693,-6.465c2.916,-3.116 4.626,-5.742 4.626,-5.742Z" style="fill:#fff;stroke:#fff;stroke-width:0.24px;"/><path d="M58.63,13.403c0,0 3.891,0.547 7.851,1.16c3.939,0.61 6.344,0.85 6.182,3.158c-0.207,2.954 -4.756,2.585 -7.882,0.632c-3.164,-1.976 -6.151,-4.95 -6.151,-4.95Z" style="fill:#fff;stroke:#fff;stroke-width:0.24px;"/><path d="M87.264,12.167c0,0 -1.046,6.73 -3.477,11.79c-1.595,3.32 -8.567,7.225 -9.163,2.886c-0.578,-4.209 2.896,-4.473 6.389,-7.791c3.902,-3.707 6.251,-6.885 6.251,-6.885Z" style="fill:#fff;stroke:#fff;stroke-width:0.24px;"/><path d="M57.466,20.292c0,0 4.858,0.977 9.798,2.043c4.914,1.06 7.924,1.541 7.549,4.436c-0.48,3.703 -6.179,2.901 -9.971,0.21c-3.837,-2.723 -7.376,-6.689 -7.376,-6.689Z" style="fill:#fff;stroke:#fff;stroke-width:0.24px;"/><path d="M90.405,24.629c0,0 -1.924,6.815 -5.067,11.733c-2.063,3.227 -9.749,6.383 -9.819,1.829c-0.068,-4.417 3.551,-4.254 7.571,-7.24c4.493,-3.337 7.315,-6.323 7.315,-6.323Z" style="fill:#fff;stroke:#fff;stroke-width:0.24px;"/><path d="M58.63,29.279c0,0 4.891,1.618 9.857,3.338c4.939,1.711 7.985,2.585 7.235,5.525c-0.96,3.762 -6.742,2.22 -10.318,-1.033c-3.619,-3.292 -6.775,-7.83 -6.775,-7.83Z" style="fill:#fff;stroke:#fff;stroke-width:0.24px;"/><path d="M92.38,35.351c0,0 -3.181,7.172 -7.402,12.072c-2.769,3.215 -11.695,5.467 -11.057,0.462c0.619,-4.855 4.563,-4.107 9.441,-6.75c5.452,-2.953 9.017,-5.784 9.017,-5.784Z" style="fill:#fff;stroke:#fff;stroke-width:0.24px;"/><path d="M56.801,35.456c0,0 5.11,2.543 10.286,5.21c5.148,2.653 8.351,4.09 7.066,7.197c-1.644,3.975 -7.743,1.375 -11.153,-2.755c-3.451,-4.179 -6.199,-9.652 -6.199,-9.652Z" style="fill:#fff;stroke:#fff;stroke-width:0.24px;"/><path d="M88.114,50.347c0,0 -4.176,5.417 -8.763,8.695c-3.01,2.151 -11.035,2.214 -9.46,-1.893c1.527,-3.984 4.713,-2.536 9.391,-3.766c5.227,-1.375 8.832,-3.036 8.832,-3.036Z" style="fill:#fff;stroke:#fff;stroke-width:0.24px;"/><path d="M57.959,43.085c0,0 3.802,3.21 7.635,6.538c3.812,3.31 6.228,5.189 4.498,7.555c-2.213,3.027 -6.842,-0.436 -8.877,-4.638c-2.059,-4.253 -3.256,-9.455 -3.256,-9.455Z" style="fill:#fff;stroke:#fff;stroke-width:0.24px;"/><path d="M79.102,62.878c0,0 -4.581,3.147 -8.945,4.537c-2.864,0.912 -9.085,-1.041 -6.843,-3.824c2.175,-2.699 4.277,-0.785 8.201,-0.569c4.385,0.241 7.587,-0.144 7.587,-0.144Z" style="fill:#fff;stroke:#fff;stroke-width:0.24px;"/><path d="M57.597,49.738c0,0 2.139,3.431 4.272,6.96c2.122,3.511 3.521,5.566 1.593,6.964c-2.467,1.788 -5.182,-2.044 -5.707,-5.801c-0.531,-3.802 -0.159,-8.124 -0.159,-8.124Z" style="fill:#fff;stroke:#fff;stroke-width:0.24px;"/><path d="M69.281,71.352c0,0 -4.488,1.53 -8.394,1.666c-2.563,0.089 -7.223,-2.949 -4.74,-4.718c2.409,-1.716 3.694,0.341 6.868,1.423c3.547,1.209 6.266,1.63 6.266,1.63Z" style="fill:#fff;stroke:#fff;stroke-width:0.24px;"/><path d="M54.643,55.602c0,0 0.967,3.311 1.906,6.703c0.934,3.373 1.61,5.384 -0.296,6.088c-2.439,0.901 -3.786,-2.873 -3.351,-6.081c0.44,-3.246 1.742,-6.71 1.742,-6.71Z" style="fill:#fff;stroke:#fff;stroke-width:0.24px;"/><path d="M70.92,12.086c0,0 18.897,44.978 -20.714,59.172" style="fill:none;stroke:#fff;stroke-width:2.33px;"/></g></g></svg>