<?xml version="1.0" encoding="UTF-8" standalone="no"?><!DOCTYPE svg PUBLIC "-//W3C//DTD SVG 1.1//EN" "http://www.w3.org/Graphics/SVG/1.1/DTD/svg11.dtd"><svg width="100%" height="100%" viewBox="0 0 92 81" version="1.1" xmlns="http://www.w3.org/2000/svg" xmlns:xlink="http://www.w3.org/1999/xlink" xml:space="preserve" xmlns:serif="http://www.serif.com/" style="fill-rule:evenodd;clip-rule:evenodd;stroke-linejoin:round;stroke-miterlimit:2;"><g id="Appearance"><g id="Cube-Bottom" serif:id="Cube Bottom"><path d="M76.7,56.672l3.184,4.671l-23.23,17.863l-11.731,-18.552l3.136,-2.798l2.393,4.486l19.032,-0.594l7.215,-5.076Z" style="fill:#fff;"/><path d="M31.83,70.759l10.788,-8.484l11.012,17.707l-15.492,0.596l-6.308,-9.819Z" style="fill:#fff;"/></g><g id="Cube-Left" serif:id="Cube Left"><path d="M0,43.354l12.517,-0.055l14.652,27.159l-12.517,0.348l-14.652,-27.452Z" style="fill:#fff;"/><path d="M14.651,42.235l21.907,-16.043l14.333,25.572l-21.174,17.428l-15.066,-26.956Z" style="fill:#fff;"/><path d="M0.558,40.764l20.136,-13.787l12.681,-1.447l-21.129,15.462l-11.688,-0.228Z" style="fill:#fff;"/></g><g id="Cube-Right" serif:id="Cube Right"><path d="M42.606,32.061l9.286,-0.17l14.454,27.262l-14.898,0.029l-1.551,-3.293l4.151,-3.416l-11.441,-20.412Z" style="fill:#fff;"/><path d="M54.047,30.545l22.65,-15.905l14.836,26.717l-22.321,16.498l-15.164,-27.31Z" style="fill:#fff;"/><path d="M40.68,28.624l19.576,-13.566l14.301,-1.286l-22.359,15.135l-11.149,0.377l-0.37,-0.66Z" style="fill:#fff;"/></g><g id="Cube-Top" serif:id="Cube Top"><path d="M12.029,30.73l-7.127,-12.54l12.657,0.23l3.475,6.144l-9.005,6.166Z" style="fill:#fff;"/><path d="M39.458,26.357l-2.446,-3.175l-13.479,1.215l-4.386,-7.458l21.488,-15.636l10.066,17.262l-11.244,7.792Z" style="fill:#fff;"/><path d="M38.898,0l-12.212,1.362l-21.45,14.761l12.146,-0.436l21.515,-15.687Z" style="fill:#fff;"/></g></g></svg>