<?xml version="1.0" encoding="UTF-8" standalone="no"?><!DOCTYPE svg PUBLIC "-//W3C//DTD SVG 1.1//EN" "http://www.w3.org/Graphics/SVG/1.1/DTD/svg11.dtd"><svg width="100%" height="100%" viewBox="0 0 95 100" version="1.1" xmlns="http://www.w3.org/2000/svg" xmlns:xlink="http://www.w3.org/1999/xlink" xml:space="preserve" xmlns:serif="http://www.serif.com/" style="fill-rule:evenodd;clip-rule:evenodd;stroke-linejoin:round;stroke-miterlimit:2;"><g id="Sentinel"><g><path d="M47.2,75.931l-4.924,0c-0.636,-0 -1.152,-0.516 -1.152,-1.152c-0,-0 -0,-0 -0,-0c0,-0.418 -0.166,-0.819 -0.462,-1.114c-0.296,-0.296 -0.696,-0.462 -1.114,-0.462c-0.495,0 -1.02,0 -1.439,0c-0.516,0 -1.01,0.205 -1.375,0.569c-1.678,1.678 -6.645,6.645 -9.144,9.144c-0.942,0.942 -1.472,2.221 -1.472,3.554l-0,2.215l10.741,0c0.851,0 1.666,0.345 2.258,0.956c0.087,0.09 0.175,0.18 0.261,0.27c0.592,0.611 1.407,0.956 2.258,0.956l5.563,-0l0,-14.937Z" style="fill:#fff;"/><path d="M33.384,66.734l-13.883,13.883l-19.501,0c0,0 0.056,-8.123 6.275,-9.952c0.207,-0.061 0.082,-5.111 0.082,-5.111l4.665,-3.346l0.05,-25.406l-3.484,-1.014l-1.091,-7.707l-3.637,-4.297l0,-5.472l15.624,0l14.566,14.566c-2.919,4.247 -4.73,10.159 -4.73,16.692c0,6.779 1.95,12.889 5.065,17.165Z" style="fill:#fff;"/><path d="M23.865,14.323l13.3,0l7.844,7.844c0,0 -1.283,1.283 -2.257,2.257c-0.603,0.603 -1.573,0.628 -2.206,0.055c-1.622,-1.467 -4.419,-3.996 -4.419,-3.996l-13.061,-0c-0.371,0 -0.718,-0.184 -0.927,-0.491c-0.208,-0.307 -0.251,-0.698 -0.114,-1.043c0.726,-1.824 1.84,-4.626 1.84,-4.626Z" style="fill:#fff;"/><path d="M20.978,13.502c-0.234,0.501 -0.737,0.822 -1.289,0.822c-2.998,0 -12.599,0 -12.599,0c0,0 -2.651,-6.857 -4.071,-10.529c-0.23,-0.594 -0.21,-1.257 0.054,-1.836c0.265,-0.58 0.752,-1.028 1.352,-1.244c0.136,-0.049 0.272,-0.098 0.404,-0.146c0.937,-0.337 1.985,-0.052 2.621,0.713c2.379,2.823 8.438,9.402 13.963,10.399c0.319,0.058 -0.085,1.067 -0.435,1.821Z" style="fill:#fff;"/><path d="M23.809,85.913c-0.234,-0.501 -0.737,-0.822 -1.289,-0.822c-2.998,-0 -12.599,-0 -12.599,-0c0,0 -2.651,6.857 -4.071,10.529c-0.23,0.594 -0.21,1.257 0.054,1.836c0.265,0.58 0.752,1.028 1.352,1.244c0.136,0.049 0.272,0.098 0.404,0.146c0.937,0.337 1.985,0.052 2.621,-0.713c2.379,-2.823 8.438,-9.402 13.963,-10.399c0.319,-0.058 -0.085,-1.067 -0.435,-1.821Z" style="fill:#fff;"/></g><g><path d="M47.068,75.931l4.924,0c0.636,-0 1.152,-0.516 1.152,-1.152c0,-0 0,-0 0,-0c-0,-0.418 0.166,-0.819 0.462,-1.114c0.296,-0.296 0.696,-0.462 1.114,-0.462c0.495,0 1.02,0 1.439,0c0.516,0 1.01,0.205 1.375,0.569c1.678,1.678 6.645,6.645 9.144,9.144c0.942,0.942 1.472,2.221 1.472,3.554l0,2.215l-10.741,0c-0.851,0 -1.666,0.345 -2.258,0.956c-0.087,0.09 -0.175,0.18 -0.261,0.27c-0.592,0.611 -1.407,0.956 -2.258,0.956l-5.563,-0l0,-14.937Z" style="fill:#fff;"/><path d="M60.884,66.734l13.883,13.883l19.501,0c0,0 -0.056,-8.123 -6.275,-9.952c-0.207,-0.061 -0.082,-5.111 -0.082,-5.111l-4.665,-3.346l-0.05,-25.406l3.484,-1.014l1.091,-7.707l3.637,-4.297l0,-5.472l-15.624,0l-14.566,14.566c2.919,4.247 4.73,10.159 4.73,16.692c0,6.779 -1.95,12.889 -5.065,17.165Z" style="fill:#fff;"/><path d="M70.403,14.323l-13.3,0l-7.844,7.844c0,0 1.283,1.283 2.257,2.257c0.603,0.603 1.573,0.628 2.206,0.055c1.622,-1.467 4.419,-3.996 4.419,-3.996l13.061,-0c0.371,0 0.718,-0.184 0.927,-0.491c0.208,-0.307 0.251,-0.698 0.114,-1.043c-0.726,-1.824 -1.84,-4.626 -1.84,-4.626Z" style="fill:#fff;"/><path d="M73.29,13.502c0.234,0.501 0.737,0.822 1.289,0.822c2.998,0 12.599,0 12.599,0c0,0 2.651,-6.857 4.071,-10.529c0.23,-0.594 0.21,-1.257 -0.054,-1.836c-0.265,-0.58 -0.752,-1.028 -1.352,-1.244c-0.136,-0.049 -0.272,-0.098 -0.404,-0.146c-0.937,-0.337 -1.985,-0.052 -2.621,0.713c-2.379,2.823 -8.438,9.402 -13.963,10.399c-0.319,0.058 0.085,1.067 0.435,1.821Z" style="fill:#fff;"/><path d="M70.459,85.913c0.234,-0.501 0.737,-0.822 1.289,-0.822c2.998,-0 12.599,-0 12.599,-0c0,0 2.651,6.857 4.071,10.529c0.23,0.594 0.21,1.257 -0.054,1.836c-0.265,0.58 -0.752,1.028 -1.352,1.244c-0.136,0.049 -0.272,0.098 -0.404,0.146c-0.937,0.337 -1.985,0.052 -2.621,-0.713c-2.379,-2.823 -8.438,-9.402 -13.963,-10.399c-0.319,-0.058 0.085,-1.067 0.435,-1.821Z" style="fill:#fff;"/></g><path d="M31.84,49.078c0,-0.876 0.71,-1.587 1.587,-1.587l7.38,-0l4.201,6.33l4.538,0.011l3.81,-6.34l7.352,0c0.876,0 1.587,0.71 1.587,1.587c0,0.654 0,1.411 0,2.065c-0,0.876 -0.71,1.587 -1.587,1.587c-2.654,-0 -7.705,-0 -7.705,-0l-3.422,2.783l0,7.362c0,0.421 -0.167,0.824 -0.465,1.122c-0.298,0.298 -0.701,0.465 -1.122,0.465l-1.4,-0c-0.421,0 -0.824,-0.167 -1.122,-0.465c-0.298,-0.298 -0.465,-0.701 -0.465,-1.122l-0,-7.362l-3.299,-2.783l-8.282,0c-0.876,-0 -1.587,-0.71 -1.587,-1.587c-0,-0.654 -0,-1.411 -0,-2.065Z" style="fill:#fff;"/><path d="M47.2,35.648c7.625,0 13.816,6.191 13.816,13.816c0,7.625 -6.191,13.816 -13.816,13.816c-7.625,0 -13.816,-6.191 -13.816,-13.816c0,-7.625 6.191,-13.816 13.816,-13.816Zm0,2.969c-6.044,0 -10.951,4.907 -10.951,10.951c0,6.044 4.907,10.951 10.951,10.951c6.044,0 10.951,-4.907 10.951,-10.951c0,-6.044 -4.907,-10.951 -10.951,-10.951Z" style="fill:#fff;"/><path d="M47.2,42.466c3.862,0 6.998,3.136 6.998,6.998c0,3.862 -3.136,6.998 -6.998,6.998c-3.862,0 -6.998,-3.136 -6.998,-6.998c0,-3.862 3.136,-6.998 6.998,-6.998Zm0,3.026c-2.25,0 -4.076,1.827 -4.076,4.076c0,2.25 1.827,4.076 4.076,4.076c2.25,0 4.076,-1.827 4.076,-4.076c0,-2.25 -1.827,-4.076 -4.076,-4.076Z" style="fill:#fff;"/></g></svg>