<?xml version="1.0" encoding="UTF-8" standalone="no"?><!DOCTYPE svg PUBLIC "-//W3C//DTD SVG 1.1//EN" "http://www.w3.org/Graphics/SVG/1.1/DTD/svg11.dtd"><svg width="100%" height="100%" viewBox="0 0 98 100" version="1.1" xmlns="http://www.w3.org/2000/svg" xmlns:xlink="http://www.w3.org/1999/xlink" xml:space="preserve" xmlns:serif="http://www.serif.com/" style="fill-rule:evenodd;clip-rule:evenodd;stroke-linejoin:round;stroke-miterlimit:2;"><g id="Melee"><path d="M9.499,71.464c-4.184,-7.061 -6.587,-15.301 -6.587,-24.097c0,-26.143 21.225,-47.367 47.367,-47.367c26.143,0 47.367,21.225 47.367,47.367c0,18.146 -10.226,33.922 -25.224,41.876l-5.353,-7.235c7.189,-6.648 11.693,-16.159 11.693,-26.714c0,-20.08 -16.303,-36.383 -36.383,-36.383c-20.08,0 -36.383,16.303 -36.383,36.383c-0,4.837 0.946,9.455 2.663,13.679c0.827,2.034 1.832,3.976 2.996,5.807c-0.763,-1.073 -1.483,-2.179 -2.157,-3.316Z" style="fill:#fff;"/><path d="M12.168,15.871c-1.214,1.489 -2.34,3.054 -3.369,4.686l-8.799,-11.388l0.67,-8.239l11.498,14.941Zm5.197,15.773c1.272,-1.329 2.643,-2.563 4.102,-3.688l32.368,42.062l-3.516,4.278l-32.955,-42.652Z" style="fill:#fff;"/><path d="M54.222,79.116c1.272,-1.329 2.071,-3.135 3.53,-4.26l15.896,20.657l-3.516,4.278l-15.911,-20.675Z" style="fill:#fff;"/><path d="M46.638,72.081l-4.227,6.188l6.373,5.066l11.776,-15.611l-5.97,-5.022l-2.375,2.985l3.726,3.137l-7.103,9.172l-1.743,-1.362l1.721,-2.338l-2.179,-2.215Z" style="fill:#fff;"/></g></svg>