<?xml version="1.0" encoding="UTF-8" standalone="no"?><!DOCTYPE svg PUBLIC "-//W3C//DTD SVG 1.1//EN" "http://www.w3.org/Graphics/SVG/1.1/DTD/svg11.dtd"><svg width="100%" height="100%" viewBox="0 0 67 64" version="1.1" xmlns="http://www.w3.org/2000/svg" xmlns:xlink="http://www.w3.org/1999/xlink" xml:space="preserve" xmlns:serif="http://www.serif.com/" style="fill-rule:evenodd;clip-rule:evenodd;stroke-linejoin:round;stroke-miterlimit:2;"><g id="Arbitration"><path d="M30.147,38.522l-14.095,0c-0.705,-1.69 -1.16,-3.509 -1.32,-5.412l12.274,0l3.14,5.412Zm6.828,-2.014l2.041,-3.397l12.273,0c-0.16,1.903 -0.615,3.722 -1.32,5.412l-11.59,0.4l-1.404,-2.415Z" style="fill:#fff;"/><g id="Spikes"><g id="Bottom"><path d="M41.796,50.871l1.508,5.003l-2.523,-3.258l1.015,-1.745Z" style="fill:#fff;"/><path d="M52.686,38.947l4.22,2.743l-5.027,-0.916l0.806,-1.827Z" style="fill:#fff;"/><path d="M46.069,47.787l10.654,7.664l-7.548,-10.595l-3.106,2.931Z" style="fill:#fff;"/></g><path id="Middle" d="M53.674,29.837l12.683,1.991l-12.771,1.787l0.088,-3.778Z" style="fill:#fff;"/><g id="Top"><path d="M41.427,12.34l-0.709,-1.22l2.14,-3.263l-0.431,4.913l-0.999,-0.431Z" style="fill:#fff;"/><path d="M52.762,24.937l4.36,-3.089l-5.243,1.175l0.882,1.913Z" style="fill:#fff;"/><path d="M46.404,15.545l10.189,-7.123l-7.095,10.055l-3.095,-2.932Z" style="fill:#fff;"/></g></g><g id="Spikes1" serif:id="Spikes"><g id="Bottom1" serif:id="Bottom"><path d="M25.519,53.084l-2.466,2.791l1.349,-4.475l1.118,1.684Z" style="fill:#fff;"/><path d="M13.671,38.947l-4.22,2.743l5.027,-0.916l-0.806,-1.827Z" style="fill:#fff;"/><path d="M20.288,47.787l-10.654,7.664l7.548,-10.595l3.106,2.931Z" style="fill:#fff;"/></g><path id="Middle1" serif:id="Middle" d="M12.683,29.837l-12.683,1.991l12.771,1.787l-0.088,-3.778Z" style="fill:#fff;"/><g id="Top1" serif:id="Top"><path d="M23.931,12.771l-0.431,-4.913l1.984,3.026l-0.945,1.625l-0.608,0.262Z" style="fill:#fff;"/><path d="M13.595,24.937l-4.36,-3.089l5.243,1.175l-0.882,1.913Z" style="fill:#fff;"/><path d="M19.953,15.545l-10.189,-7.123l7.095,10.055l3.095,-2.932Z" style="fill:#fff;"/></g></g><path d="M33.322,30.17l2.828,-4.895c0.159,-0.282 0.547,-0.546 0.872,-0.546l12.952,-0c0.735,1.788 1.192,3.72 1.315,5.742l-11.03,0c-0.326,-0 -0.626,0.176 -0.785,0.461l-2.902,4.882l-3.249,-5.643Z" style="fill:#fff;"/><path d="M43.46,47.311c4.938,-3.405 8.446,-9.281 8.446,-15.728c0,-6.649 -3.446,-12.5 -8.648,-15.862c-0.026,-0.195 -0.09,-0.387 -0.192,-0.562l-1.682,-2.893c0.353,0.153 0.701,0.316 1.044,0.487c1.477,0.739 2.856,1.647 4.11,2.699c1.072,0.899 2.053,1.902 2.928,2.995c1.097,1.37 2.027,2.881 2.758,4.5c0.272,0.603 0.517,1.222 0.732,1.853c0.726,2.129 1.119,4.411 1.119,6.784c0,2.602 -0.473,5.095 -1.339,7.396c-0.232,0.617 -0.492,1.22 -0.779,1.808c-0.734,1.505 -1.642,2.909 -2.698,4.187c-0.895,1.083 -1.896,2.074 -2.987,2.959c-1.111,0.901 -3.025,2.13 -4.306,2.793l0.868,-1.492c0.296,-0.51 0.799,-1.374 0.625,-1.923Zm-26.497,-2.148c-1.112,-1.314 -2.066,-2.766 -2.832,-4.327c-0.272,-0.555 -0.521,-1.124 -0.745,-1.705c-0.902,-2.344 -1.397,-4.889 -1.397,-7.549c0,-2.319 0.376,-4.551 1.07,-6.639c0.035,-0.104 0.07,-0.208 0.106,-0.312c0.081,-0.232 0.166,-0.462 0.256,-0.69c0.139,-0.357 0.288,-0.709 0.446,-1.056c0.755,-1.659 1.719,-3.203 2.858,-4.598c0.879,-1.076 1.862,-2.064 2.934,-2.948c1.298,-1.07 2.726,-1.988 4.258,-2.726c0.252,-0.121 0.506,-0.238 0.763,-0.349l-1.682,2.893c-0.102,0.176 -0.166,0.367 -0.192,0.562c-2.963,1.915 -5.356,4.637 -6.867,7.854c-0.178,0.378 -0.343,0.763 -0.496,1.154c-0.701,1.797 -1.135,3.727 -1.253,5.742c-0.021,0.368 -0.032,0.739 -0.032,1.113l0,0.041c0.014,6.43 3.705,12.47 8.633,15.868c-0.174,0.549 0.331,1.277 0.627,1.787l0.868,1.492c-1.228,-0.635 -3.284,-1.872 -4.357,-2.727c-1.081,-0.861 -2.074,-1.827 -2.967,-2.881Zm16.599,-32.451c-0.107,-0.002 -0.423,-0.003 -0.53,-0.003c-0.445,0 -1.043,0.015 -1.481,0.046l-1.261,-2.058c0.551,-0.068 1.471,-0.114 2.034,-0.138l1.238,2.152Z" style="fill:#fff;"/><path d="M33.021,29.608l-2.591,-4.589c-0.364,-0.645 -0.435,-0.834 -1.176,-0.834l-0.869,-0l-4.868,-7.807c-0.165,-0.284 -0.165,-0.634 0,-0.918l4.452,-7.656l3.59,5.859c-1.214,3.326 0.264,5.438 0.264,5.438l3.674,6.223l-2.475,4.285Zm-3.415,-24.619l2.637,-4.535c0.163,-0.281 0.464,-0.454 0.789,-0.454c0.325,0 0.626,0.173 0.789,0.454l8.726,15.006c0.165,0.284 0.165,0.634 -0,0.918l-4.602,7.387l-3,-5.336c0.845,-4.54 -0.928,-5.77 -0.928,-5.77l-4.41,-7.669Z" style="fill:#fff;"/><path d="M16.047,24.729l12.995,0c0.324,-0 0.624,0.175 0.783,0.457l4.548,8.054l8.174,14.057c0.165,0.284 0.165,0.634 -0,0.918l-3.799,6.534c-0.126,0.217 -0.359,0.35 -0.611,0.348c-0.251,-0.002 -0.482,-0.138 -0.606,-0.357l-2.587,-4.601c0.845,-4.54 -0.928,-6.298 -0.928,-6.298l-4.701,-8.176l-2.723,-4.733c-0.159,-0.285 -0.459,-0.461 -0.785,-0.461l-11.074,-0c0.123,-2.021 0.58,-3.953 1.315,-5.742Zm20.364,33.326c0.129,0.218 0.13,0.489 0.002,0.708c-0.647,1.112 -2.592,4.458 -2.592,4.458c-0.163,0.281 -0.464,0.454 -0.789,0.454c-0.325,-0 -0.626,-0.173 -0.789,-0.454l-8.726,-15.006c-0.165,-0.284 -0.165,-0.634 0,-0.918c0,0 2.806,-4.826 4.058,-6.978c0.124,-0.213 0.351,-0.346 0.598,-0.348c0.247,-0.003 0.477,0.124 0.605,0.335c0.978,1.596 2.781,4.539 2.781,4.539c-1.214,3.326 0.264,5.438 0.264,5.438c0,0 3.666,6.209 4.588,7.772Z" style="fill:#fff;"/><circle cx="33.032" cy="16.162" r="0.597" style="fill:#fff;"/><circle cx="33.032" cy="47.544" r="0.597" style="fill:#fff;"/></g></svg>