<?xml version="1.0" encoding="UTF-8" standalone="no"?>
<!DOCTYPE svg PUBLIC "-//W3C//DTD SVG 1.1//EN" "http://www.w3.org/Graphics/SVG/1.1/DTD/svg11.dtd">
<svg width="100%" height="100%" viewBox="0 0 426 373" version="1.1" xmlns="http://www.w3.org/2000/svg" xmlns:xlink="http://www.w3.org/1999/xlink" xml:space="preserve" xmlns:serif="http://www.serif.com/" style="fill-rule:evenodd;clip-rule:evenodd;stroke-linecap:round;stroke-linejoin:round;stroke-miterlimit:1.5;">
    <g transform="matrix(1,0,0,1,-30.777617,-72.326816)">
        <path d="M31.75,168.972C34.226,158.803 64.975,158.527 88.019,155.564C106.097,153.24 117.895,147.214 117.895,147.214L152.975,172.524C152.975,172.524 157.86,183.626 172.069,168.972C186.279,154.318 300.252,92.966 342.584,77.942C368.81,68.634 416.297,73.945 426.066,78.83C435.835,83.714 438.055,97.924 438.055,97.924L437.611,156.983C437.611,156.983 452.939,169.068 454.041,177.853C456.853,200.278 454.485,291.53 454.485,291.53L331.039,430.073L327.931,408.759L435.391,279.096C435.391,279.096 439.831,208.122 437.611,188.51C436.44,178.167 424.121,171.629 422.069,161.423C419.257,147.436 423.327,115.982 420.737,104.585C419.385,98.634 412.419,94.63 406.528,93.04C399.127,91.041 382.134,88.81 376.332,92.595C367.837,98.138 371.448,142.773 371.448,142.773L342.14,164.532C342.14,164.532 353.982,110.653 353.242,99.7C352.892,94.523 340.108,94.216 337.7,98.812C330.373,112.8 309.281,183.626 309.281,183.626C309.281,183.626 300.712,170.067 298.623,174.301C295.885,179.851 292.851,216.929 292.851,216.929C292.851,216.929 241.785,284.425 244.005,291.974C246.226,299.523 283.526,280.873 283.526,280.873C283.526,280.873 292.851,228.919 317.718,199.611C342.584,170.304 376.776,164.976 376.776,164.976L398.535,131.228L406.528,136.556L403.419,200.944L387.433,225.366L387.877,288.865L362.123,317.285C362.123,317.285 361.549,407.155 304.396,398.99C298.179,398.102 306.616,378.563 306.616,378.563L307.504,337.267L298.179,336.823C298.179,336.823 296.847,391.885 279.973,399.434C263.099,406.983 224.911,422.968 210.258,441.175C195.604,459.381 198.712,401.21 198.712,401.21L181.394,375.011L198.712,340.819L229.352,338.155L250,328.83C250,328.83 255.787,366.78 232.46,393.217C225.799,400.766 266.652,381.672 266.652,381.672C266.652,381.672 283.583,360.765 279.973,306.627C279.529,299.967 254.773,310.624 254.773,310.624L229.352,328.83L196.048,329.274L175.622,360.357C175.622,360.357 131.661,309.292 128.996,289.31C126.332,269.327 86.812,250 86.812,250C86.812,250 25.315,195.398 31.75,168.972ZM119.227,161.867C115.675,218.706 155.639,229.363 155.639,229.363L209.369,160.979L171.181,185.846C171.181,185.846 157.416,184.514 146.758,185.402C136.101,186.29 119.227,161.867 119.227,161.867Z" style="fill:white;stroke:black;stroke-opacity:0;stroke-width:1px;"/>
    </g>
</svg>
