<?xml version="1.0" encoding="UTF-8" standalone="no"?><!DOCTYPE svg PUBLIC "-//W3C//DTD SVG 1.1//EN" "http://www.w3.org/Graphics/SVG/1.1/DTD/svg11.dtd"><svg width="100%" height="100%" viewBox="0 0 77 104" version="1.1" xmlns="http://www.w3.org/2000/svg" xmlns:xlink="http://www.w3.org/1999/xlink" xml:space="preserve" xmlns:serif="http://www.serif.com/" style="fill-rule:evenodd;clip-rule:evenodd;stroke-linejoin:round;stroke-miterlimit:2;"><g id="Foundry"><path d="M30.21,78.655c-0.196,0.203 -0.251,0.504 -0.141,0.763c0.11,0.26 0.365,0.428 0.647,0.428c2.501,0 7.255,0 10.132,0c0.634,-0 1.242,0.252 1.691,0.7c0.448,0.448 0.7,1.057 0.7,1.691c-0,3.264 -0,8.928 -0,10.844c0,0.174 -0.069,0.34 -0.192,0.463c-0.123,0.123 -0.289,0.192 -0.463,0.192c-0,-0 -0,-0 -0,-0c-0.174,-0 -0.34,0.069 -0.463,0.192c-0.123,0.123 -0.192,0.289 -0.192,0.463c-0,1.397 -0,4.729 -0,7.031c-0,0.634 -0.252,1.242 -0.7,1.691c-0.448,0.448 -1.057,0.7 -1.691,0.7c-2.469,0 -6.298,0 -8.767,0c-0.634,0 -1.242,-0.252 -1.691,-0.7c-0.448,-0.448 -0.7,-1.057 -0.7,-1.691c0,-0.376 0,-0.765 0,-1.141c0,-0.634 -0.252,-1.242 -0.7,-1.691c-0.448,-0.448 -1.057,-0.7 -1.691,-0.7l-10.409,0c-1.015,0 -1.838,0.823 -1.838,1.838c-0,0 -0,0.001 -0,0.001c-0,1.015 -0.823,1.838 -1.838,1.838c-1.476,-0 -3.561,-0 -5.167,-0c-0.634,0 -1.242,-0.252 -1.691,-0.7c-0.448,-0.448 -0.7,-1.057 -0.7,-1.691c0,-3.815 0,-11.165 0,-14.274c-0,-0.889 0.493,-1.704 1.28,-2.117c1.526,-0.801 4.003,-2.101 5.075,-2.663c0.343,-0.18 0.724,-0.274 1.111,-0.274l8.121,0c0.615,-0 1.207,-0.237 1.651,-0.662c1.438,-1.374 4.733,-4.52 6.171,-5.893c0.445,-0.425 1.036,-0.662 1.651,-0.662c0.239,0 0.505,0 0.775,0c1.192,0 2.203,0.879 2.368,2.06c0.009,0.065 0.018,0.129 0.027,0.192c0.102,0.728 -0.137,1.462 -0.647,1.991c-0.504,0.523 -1.161,1.204 -1.719,1.783Z" style="fill:#fff;"/><path d="M50.02,61.216c-0,-0.619 0.28,-1.205 0.762,-1.593c2.265,-1.826 8.986,-7.243 11.963,-9.643c0.821,-0.662 2.011,-0.591 2.748,0.163c1.073,1.098 2.547,2.606 3.354,3.433c0.377,0.386 0.586,0.905 0.583,1.445c-0.028,3.872 -0.142,20.019 -0.183,25.811c-0.004,0.548 0.212,1.075 0.6,1.463c0.388,0.387 0.915,0.603 1.464,0.598c1.121,-0.01 2.5,-0.022 3.619,-0.032c0.546,-0.005 1.071,0.209 1.459,0.593c0.388,0.384 0.606,0.907 0.606,1.453l0,4.4c0,0.543 -0.216,1.063 -0.599,1.447c-0.384,0.384 -0.904,0.599 -1.447,0.599l-4.694,-0c-0.564,-0 -1.021,0.457 -1.021,1.021c-0,0 -0,0 -0,0.001c0,0.564 0.457,1.021 1.021,1.021c1.146,0 3.037,0 4.49,0c0.543,-0 1.063,0.216 1.447,0.599c0.384,0.384 0.599,0.904 0.599,1.447l-0,4.214c0,0.543 -0.216,1.063 -0.599,1.447c-0.384,0.384 -0.904,0.599 -1.447,0.599l-1.324,-0c-0.583,0 -1.055,0.472 -1.055,1.055l-0,0.001c-0,0.28 -0.111,0.548 -0.309,0.746c-0.198,0.198 -0.466,0.309 -0.746,0.309c-3.894,0 -17.498,0 -22.703,0c-1.13,0 -2.046,-0.916 -2.046,-2.046l-0,-21.848c-0,-0.683 0.341,-1.321 0.909,-1.701c0.507,-0.339 1.137,-0.76 1.644,-1.099c0.568,-0.38 0.909,-1.018 0.909,-1.701l0,-14.2Z" style="fill:#fff;"/><path d="M54.113,41.401c0.595,-0.533 1.378,-0.808 2.176,-0.765c0.798,0.044 1.546,0.403 2.08,0.998c0.823,0.918 1.772,1.978 2.595,2.896c0.533,0.595 0.808,1.378 0.765,2.176c-0.044,0.798 -0.403,1.546 -0.998,2.08c-1.955,1.752 -4.857,4.351 -7.33,6.567c-1.269,1.137 -2.938,1.724 -4.64,1.63c-1.702,-0.093 -3.297,-0.859 -4.434,-2.128c-0.108,-0.12 -0.214,-0.239 -0.318,-0.355c-0.533,-0.595 -0.808,-1.378 -0.765,-2.176c0.044,-0.798 0.403,-1.546 0.998,-2.08c2.692,-2.412 7.179,-6.432 9.871,-8.844Z" style="fill:#fff;"/><path d="M7.149,57.275l-6.337,-7.128c-0.567,-0.637 -0.857,-1.473 -0.807,-2.324c0.05,-0.851 0.436,-1.648 1.073,-2.214l11.977,-10.649c0.637,-0.567 1.473,-0.857 2.324,-0.807c0.851,0.05 1.648,0.436 2.214,1.073l16.331,18.368c0.567,0.637 0.857,1.473 0.807,2.324c-0.05,0.851 -0.436,1.648 -1.073,2.214l-11.977,10.649c-0.637,0.567 -1.473,0.857 -2.324,0.807c-0.851,-0.05 -1.648,-0.436 -2.214,-1.073l-6.673,-7.506c0.137,-0.025 0.271,-0.059 0.4,-0.101c1.166,-0.386 2.009,-1.485 2.009,-2.78c-0,-1.616 -1.312,-2.928 -2.928,-2.928c-1.139,0 -2.126,0.651 -2.61,1.602c-0.077,0.151 -0.141,0.309 -0.191,0.474Z" style="fill:#fff;"/><path d="M7.341,56.801c-0.203,0.398 -0.317,0.849 -0.317,1.326c0,1.616 1.312,2.928 2.928,2.928c0.321,0 0.63,-0.052 0.919,-0.147l3.068,3.57l-1.595,1.315c-1.352,1.115 -3.348,0.941 -4.487,-0.391l-5.372,-6.278c-1.091,-1.276 -1.017,-3.176 0.17,-4.363l1.578,-1.578l3.11,3.619Z" style="fill:#fff;"/><path d="M53.203,33.757c1.741,1.912 1.602,4.874 -0.31,6.615c-3.379,3.077 -8.492,7.731 -11.871,10.808c-1.912,1.741 -4.874,1.602 -6.615,-0.31c-3.873,-4.254 -10.403,-11.427 -14.276,-15.681c-1.741,-1.912 -1.602,-4.874 0.31,-6.615c5.43,-4.943 15.334,-13.961 15.334,-13.961c0,0 11.662,12.809 17.429,19.144Z" style="fill:#fff;"/><path d="M31.538,18.47c0,0 1.44,-7.442 2.107,-10.894c0.215,-1.109 0.823,-2.104 1.713,-2.8c0.795,-0.622 1.831,-1.431 2.823,-2.207c1.873,-1.464 4.546,-1.293 6.216,0.399c1.318,1.335 2.886,2.923 4.271,4.325c0.917,0.929 1.405,2.198 1.346,3.501c-0.059,1.304 -0.659,2.524 -1.656,3.366c-1.484,1.254 -3.094,2.615 -4.242,3.584c-0.978,0.826 -1.487,2.08 -1.362,3.354c0.074,0.758 0.141,1.438 0.141,1.438l-11.359,-4.066Z" style="fill:#fff;"/><path d="M61.473,30.872c0.445,0.48 0.681,1.116 0.657,1.77c-0.025,0.654 -0.308,1.271 -0.787,1.716c-0.463,0.43 -0.962,0.892 -1.425,1.322c-0.48,0.445 -1.116,0.681 -1.77,0.657c-0.654,-0.025 -1.271,-0.308 -1.716,-0.787c-2.996,-3.23 -9.235,-9.954 -12.231,-13.184c-0.445,-0.48 -0.681,-1.116 -0.657,-1.77c0.025,-0.654 0.308,-1.271 0.787,-1.716c0.463,-0.43 0.962,-0.892 1.425,-1.322c0.48,-0.445 1.116,-0.681 1.77,-0.657c0.654,0.025 1.271,0.308 1.716,0.787c2.996,3.23 9.235,9.954 12.231,13.184Z" style="fill:#fff;"/></g></svg>