<?xml version="1.0" encoding="UTF-8" standalone="no"?><!DOCTYPE svg PUBLIC "-//W3C//DTD SVG 1.1//EN" "http://www.w3.org/Graphics/SVG/1.1/DTD/svg11.dtd"><svg width="100%" height="100%" viewBox="0 0 51 102" version="1.1" xmlns="http://www.w3.org/2000/svg" xmlns:xlink="http://www.w3.org/1999/xlink" xml:space="preserve" xmlns:serif="http://www.serif.com/" style="fill-rule:evenodd;clip-rule:evenodd;stroke-linejoin:round;stroke-miterlimit:2;"><g id="Reactant"><path d="M14.824,40.434c-6.67,-12.584 -3.907,-20.719 -3.907,-20.719c0,0 5.851,5.938 12.434,12.347c-2.565,2.456 -5.479,5.165 -8.527,8.372Zm23.473,5.411c0.388,0.312 0.748,0.591 1.075,0.833c6.805,5.025 22.487,27.282 -1.599,46.039c0,0 9.332,-17.948 -7.387,-33.184c2.001,-4.363 4.61,-8.929 7.911,-13.687Z" style="fill:#fff;"/><path d="M13.607,0c0,0 53.618,7.034 26.281,39.837c-26.528,31.831 -14.195,53.819 1.108,62.11c0,0 -54.801,-4.757 -37.684,-40.583c16.853,-35.272 45.89,-26.581 10.295,-61.364Z" style="fill:#fff;"/></g></svg>