<?xml version="1.0" encoding="UTF-8" standalone="no"?><!DOCTYPE svg PUBLIC "-//W3C//DTD SVG 1.1//EN" "http://www.w3.org/Graphics/SVG/1.1/DTD/svg11.dtd"><svg width="100%" height="100%" viewBox="0 0 108 106" version="1.1" xmlns="http://www.w3.org/2000/svg" xmlns:xlink="http://www.w3.org/1999/xlink" xml:space="preserve" xmlns:serif="http://www.serif.com/" style="fill-rule:evenodd;clip-rule:evenodd;stroke-linejoin:round;stroke-miterlimit:2;"><g id="Relic"><g id="Half"><path d="M37.614,52.186l4.586,10.545c0,0 -15.567,7.876 -17.909,9.565c0,0 1.776,-7.255 13.323,-20.11Z" style="fill:#fff;"/><path d="M52.004,69.037l-0.261,12.811c0,0 -9.891,4.806 -13.072,11.591l-12.811,-15.831l3.835,1.307l15.251,-8.366l0.174,-3.573l6.885,2.061Z" style="fill:#fff;"/><path d="M0.236,54.098c0,0 16.314,10.789 23.068,28.164c0,0 4.957,9.948 14.815,19.391c0,0 -7.898,-2.649 -15.197,-12.236c0,0 5.523,9.532 7.266,11.656c0,0 -14.096,-9.695 -16.765,-17.648c0,0 0.85,4.129 3.508,7.571c0,0 -17.24,-11.012 -16.696,-36.899Z" style="fill:#fff;"/><path d="M46.224,15.81c0,0 -17.362,4.289 -22.74,14.502c-5.379,10.213 -6.128,31.973 -2.587,37.215c0,0 11.098,-17.991 17.77,-18.127c0,0 1.391,-1.479 0.58,-5.607l0,-6.809c0,0 8.748,-19.268 6.978,-21.174Z" style="fill:#fff;"/><path d="M54.036,15.915c0,0 -6.465,7.234 -8.337,23.319c0,0 3.568,-2.468 8.337,-2.128l0,-21.191Z" style="fill:#fff;"/><path d="M26.531,22.417c0,0 2.809,-8.234 13.447,-14.553l2.656,6.022c0,0 -11.507,7.531 -16.103,8.531Z" style="fill:#fff;"/><path d="M39.246,2.617c0,0 -11.915,1.702 -19.915,9.702l5.021,8.681c0,0 5.021,-9.461 14.894,-18.383Z" style="fill:#fff;"/><path d="M16.614,15.478c0,0 4.681,6.788 4.851,10.873c0,0 -6.304,10.367 -5.964,34.047c0,0 -5.459,-5.808 -15.502,-9.149c0,0 0.359,-20.318 16.614,-35.771Z" style="fill:#fff;"/></g><g id="Half1" serif:id="Half"><path d="M69.978,52.186l-4.586,10.545c0,0 15.567,7.876 17.909,9.565c0,0 -1.776,-7.255 -13.323,-20.11Z" style="fill:#fff;"/><path d="M55.588,69.037l0.261,12.811c0,0 9.891,4.806 13.072,11.591l12.811,-15.831l-3.835,1.307l-15.251,-8.366l-0.174,-3.573l-6.885,2.061Z" style="fill:#fff;"/><path d="M107.356,54.098c0,0 -16.314,10.789 -23.068,28.164c0,0 -4.957,9.948 -14.815,19.391c0,0 7.898,-2.649 15.197,-12.236c0,0 -5.523,9.532 -7.266,11.656c0,0 14.096,-9.695 16.765,-17.648c0,0 -0.85,4.129 -3.508,7.571c0,0 17.24,-11.012 16.696,-36.899Z" style="fill:#fff;"/><path d="M61.368,15.81c0,0 17.362,4.289 22.74,14.502c5.379,10.213 6.128,31.973 2.587,37.215c0,0 -11.098,-17.991 -17.77,-18.127c0,0 -1.391,-1.479 -0.58,-5.607l0,-6.809c0,0 -8.748,-19.268 -6.978,-21.174Z" style="fill:#fff;"/><path d="M53.556,15.915c0,0 6.465,7.234 8.337,23.319c0,0 -3.568,-2.468 -8.337,-2.128l0,-21.191Z" style="fill:#fff;"/><path d="M81.061,22.417c0,0 -2.809,-8.234 -13.447,-14.553l-2.656,6.022c0,0 11.507,7.531 16.103,8.531Z" style="fill:#fff;"/><path d="M68.346,2.617c0,0 11.915,1.702 19.915,9.702l-5.021,8.681c0,0 -5.021,-9.461 -14.894,-18.383Z" style="fill:#fff;"/><path d="M90.978,15.478c0,0 -4.681,6.788 -4.851,10.873c0,0 6.304,10.367 5.964,34.047c0,0 5.459,-5.808 15.502,-9.149c0,0 -0.359,-20.318 -16.614,-35.771Z" style="fill:#fff;"/></g><ellipse cx="53.796" cy="5.585" rx="9.149" ry="5.585" style="fill:#fff;"/><circle cx="53.796" cy="51.249" r="9.149" style="fill:#fff;"/><ellipse cx="53.796" cy="97.42" rx="10.957" ry="7.66" style="fill:#fff;"/></g></svg>