<?xml version="1.0" encoding="UTF-8" standalone="no"?><!DOCTYPE svg PUBLIC "-//W3C//DTD SVG 1.1//EN" "http://www.w3.org/Graphics/SVG/1.1/DTD/svg11.dtd"><svg width="100%" height="100%" viewBox="0 0 81 101" version="1.1" xmlns="http://www.w3.org/2000/svg" xmlns:xlink="http://www.w3.org/1999/xlink" xml:space="preserve" xmlns:serif="http://www.serif.com/" style="fill-rule:evenodd;clip-rule:evenodd;stroke-linejoin:round;stroke-miterlimit:2;"><g id="Pistol"><path d="M47.92,40.489c-0.342,0.348 -0.888,0.392 -1.281,0.102l-0.837,-0.617c-0.23,-0.169 -0.375,-0.431 -0.396,-0.716c-0.021,-0.285 0.082,-0.565 0.284,-0.767l13.428,-13.428l0.167,-2.461c0.042,-0.623 0.309,-1.21 0.751,-1.651l8.066,-8.066c0.36,-0.36 0.849,-0.563 1.358,-0.563c0.509,-0 0.998,0.202 1.358,0.563l8.896,8.896c0.75,0.75 0.75,1.966 0,2.717l-10.516,10.516c-0.308,0.308 -0.731,0.473 -1.167,0.455c-0.435,-0.018 -0.843,-0.218 -1.125,-0.551l-2.458,-2.91l-11.841,11.841c-0.335,0.335 -0.86,0.382 -1.25,0.114l-0.886,-0.611c-0.24,-0.165 -0.393,-0.428 -0.42,-0.718c-0.026,-0.29 0.077,-0.576 0.283,-0.782l12,-12l-2.004,-2.004l-12.411,12.643Zm25.037,-16.869l-3.95,-3.915c-0.287,-0.284 -0.749,-0.282 -1.033,0.005l-0.153,0.154c-0.284,0.287 -0.282,0.749 0.005,1.033l3.95,3.915c0.287,0.284 0.749,0.282 1.033,-0.005l0.153,-0.154c0.284,-0.287 0.282,-0.749 -0.005,-1.033Zm-2.274,3.494l-5.177,-5.13c-0.287,-0.284 -0.749,-0.282 -1.033,0.005l-0.443,0.447c-0.284,0.287 -0.282,0.749 0.005,1.033l5.177,5.13c0.287,0.284 0.749,0.282 1.033,-0.005l0.443,-0.447c0.284,-0.287 0.282,-0.749 -0.005,-1.033Zm4.405,-6.368l-3.202,-3.173c-0.278,-0.275 -0.726,-0.273 -1.001,0.005c-0.275,0.278 -0.273,0.726 0.004,1.001l3.202,3.173c0.278,0.275 0.726,0.273 1.001,-0.005c0.275,-0.278 0.273,-0.726 -0.004,-1.001Z" style="fill:#fff;"/><path d="M15.153,71.72l18.013,-0.204c0,0 5.962,13.75 7.357,13.576c1.394,-0.174 5.403,1.264 5.36,3.05c-0.044,1.787 -0.044,4.532 -0.044,4.532c0,0 -9.84,0.521 -10.806,2.614c-0.261,0.566 7.364,-1.046 7.364,-1.046c0,0 4.662,-0.261 -0.523,3.704c-5.185,3.965 -10.284,2.745 -10.284,2.745l-15.295,-20.131c0,0 1.332,-6.525 -1.142,-8.84Z" style="fill:#fff;"/><path d="M18.292,36.546c0.248,-0.422 0.38,-0.664 0.37,-0.684c-0.106,-0.213 27.619,-27.979 27.619,-27.979l0,-2.66l5.575,-5.224l9.269,0.825l-6.514,6.514l1.699,1.699l6.558,-6.558l2.963,2.963l0.501,5.076l-9.347,9.347l0,4.249l-14.866,14.866c-0.93,-0.12 -1.877,-0.182 -2.84,-0.182c-12.13,0 -21.977,9.848 -21.977,21.977c0,3.034 0.616,5.925 1.73,8.555l-0.513,0.677l-6.405,0l-8.588,8.588l-1.609,-3.874l1.242,-1.242l-3.159,-7.429l2.386,-4.018c0,0 0.2,-0.316 0.555,-0.88c14.455,-8.04 15.435,-20.579 15.351,-24.607Z" style="fill:#fff;"/><path d="M22.639,70.008c-1.788,-2.893 -2.82,-6.301 -2.82,-9.949c0,-10.466 8.497,-18.963 18.963,-18.963c4.879,0 9.329,1.846 12.691,4.878l-5.776,6.061c-2.077,-1.711 -4.737,-2.738 -7.635,-2.738c-6.635,0 -12.021,5.387 -12.021,12.021c0,3.106 1.18,5.938 3.117,8.072l-0.588,0.617l-5.93,0Z" style="fill:#fff;"/><circle cx="37.319" cy="60.779" r="8.963" style="fill:#fff;"/></g></svg>