<?xml version="1.0" encoding="UTF-8" standalone="no"?><!DOCTYPE svg PUBLIC "-//W3C//DTD SVG 1.1//EN" "http://www.w3.org/Graphics/SVG/1.1/DTD/svg11.dtd"><svg width="100%" height="100%" viewBox="0 0 94 93" version="1.1" xmlns="http://www.w3.org/2000/svg" xmlns:xlink="http://www.w3.org/1999/xlink" xml:space="preserve" xmlns:serif="http://www.serif.com/" style="fill-rule:evenodd;clip-rule:evenodd;stroke-linejoin:round;stroke-miterlimit:2;"><g id="Empower"><g id="Left"><path d="M46.895,0c0,0 -2.401,6.71 -5.139,12.273c-1.358,2.759 -0.953,8.644 -1.408,8.505c-3.281,-1.001 -2.7,-8.228 -2.7,-8.228c0,0 -3.343,3.511 -2.776,7.57c0.567,4.06 1.004,5.5 1.004,5.5c0,0 -16.174,-4.615 -7.901,-19.076c1.877,-3.281 -13.969,10.208 -2.575,21.033c11.393,10.826 17.956,7.927 21.615,18.677l0.12,-7.316c0,0 -7.79,-6.002 -10.573,-6.711c-2.783,-0.709 -8.458,-6.93 -8.458,-6.93c0,0 9.385,6.493 14.405,4.147c0,0 -4.42,-5.075 -3.929,-6.22l5.456,2.565c0,0 -0.483,-9.985 2.978,-12.386l-0.12,-13.402Z" style="fill:#fff;"/><path d="M35.817,63.592c1.873,-2.304 1.653,-5.762 1.653,-5.762c0,0 -1.169,-6.165 -15.268,-10.661c-14.1,-4.496 -18.552,-13.794 -18.552,-13.794c0.175,4.976 5.196,8.261 5.196,8.261c0.223,15.732 15.985,15.822 15.985,15.822c0,0 -2.217,3.325 -8.27,3.922c-6.053,0.597 -10.572,-3.581 -13.044,-8.44c-2.472,-4.86 -2.643,-17.989 -3.41,-23.105c-0.767,-5.115 2.865,-26.17 2.865,-26.17c-0.273,8.578 5.129,23.001 5.129,23.001c-0.251,-1.676 0.884,-2.555 0.884,-2.555c-0.164,1.582 2.565,4.638 2.565,4.638c-7.694,0.437 -8.239,-7.53 -8.239,-7.53c-1.91,6.493 5.776,9.212 5.776,9.212l6.426,0c2.123,0.056 2.803,1.164 2.803,1.164c0.131,12.176 6.548,12.834 6.548,12.834c-5.849,-5.456 -4.409,-8.861 -4.409,-8.861c0.393,1.091 11,4.714 11,4.714c0,0 13.227,2.357 13.445,12.004c0.218,9.647 -9.08,11.306 -9.08,11.306Zm-17.603,-23.067c-0.306,-9.211 -3.667,-7.159 -3.667,-7.159c-2.794,3.623 3.667,7.159 3.667,7.159Zm-14.405,5.878c1.004,15.263 13.969,12.921 13.969,12.921c-9.734,-1.98 -13.969,-12.921 -13.969,-12.921Zm38.005,9.649c5.858,-11.17 -15.894,-15.526 -15.894,-15.526c17.372,11.376 16.044,15.211 15.894,15.526Z" style="fill:#fff;"/><path d="M46.895,62.995c0,0 -0.459,4.82 -7.147,5.396c-1.033,0.089 -3.038,2.082 -3.038,4.592c0,0 7.684,0.435 10.185,6.601l0,-16.588Z" style="fill:#fff;"/><path d="M46.895,87.331c0,0 -0.282,-8.785 -18.343,-10.258c0,0 -4.42,0.055 -4.911,-4.747c0,0 -1.746,1.855 0.218,5.675c0,0 -3.268,-1.746 -2.616,-4.201c0.652,-2.455 6.708,-9.44 10.473,-12.441c3.765,-3.001 -0.709,-9.876 -7.748,-9.494c0,0 10.998,5.38 -4.42,17.406c0,0 -7.148,6.875 4.092,12.768c11.24,5.893 19.225,0.162 23.254,10.804l0,-5.511Z" style="fill:#fff;"/></g><g id="Left1" serif:id="Left"><path d="M46.895,0c0,0 2.401,6.71 5.139,12.273c1.358,2.759 0.953,8.644 1.408,8.505c3.281,-1.001 2.7,-8.228 2.7,-8.228c0,0 3.343,3.511 2.776,7.57c-0.567,4.06 -1.004,5.5 -1.004,5.5c0,0 16.174,-4.615 7.901,-19.076c-1.877,-3.281 13.969,10.208 2.575,21.033c-11.393,10.826 -17.956,7.927 -21.615,18.677l-0.12,-7.316c0,0 7.79,-6.002 10.573,-6.711c2.783,-0.709 8.458,-6.93 8.458,-6.93c0,0 -9.385,6.493 -14.405,4.147c0,0 4.42,-5.075 3.929,-6.22l-5.456,2.565c0,0 0.483,-9.985 -2.978,-12.386l0.12,-13.402Z" style="fill:#fff;"/><path d="M57.973,63.592c-1.873,-2.304 -1.653,-5.762 -1.653,-5.762c0,0 1.169,-6.165 15.268,-10.661c14.1,-4.496 18.552,-13.794 18.552,-13.794c-0.175,4.976 -5.196,8.261 -5.196,8.261c-0.223,15.732 -15.985,15.822 -15.985,15.822c0,0 2.217,3.325 8.27,3.922c6.053,0.597 10.572,-3.581 13.044,-8.44c2.472,-4.86 2.643,-17.989 3.41,-23.105c0.767,-5.115 -2.865,-26.17 -2.865,-26.17c0.273,8.578 -5.129,23.001 -5.129,23.001c0.251,-1.676 -0.884,-2.555 -0.884,-2.555c0.164,1.582 -2.565,4.638 -2.565,4.638c7.694,0.437 8.239,-7.53 8.239,-7.53c1.91,6.493 -5.776,9.212 -5.776,9.212l-6.426,0c-2.123,0.056 -2.803,1.164 -2.803,1.164c-0.131,12.176 -6.548,12.834 -6.548,12.834c5.849,-5.456 4.409,-8.861 4.409,-8.861c-0.393,1.091 -11,4.714 -11,4.714c0,0 -13.227,2.357 -13.445,12.004c-0.218,9.647 9.08,11.306 9.08,11.306Zm17.603,-23.067c0.306,-9.211 3.667,-7.159 3.667,-7.159c2.794,3.623 -3.667,7.159 -3.667,7.159Zm14.405,5.878c-1.004,15.263 -13.969,12.921 -13.969,12.921c9.734,-1.98 13.969,-12.921 13.969,-12.921Zm-38.005,9.649c-5.858,-11.17 15.894,-15.526 15.894,-15.526c-17.372,11.376 -16.044,15.211 -15.894,15.526Z" style="fill:#fff;"/><path d="M46.895,62.995c0,0 0.459,4.82 7.147,5.396c1.033,0.089 3.038,2.082 3.038,4.592c0,0 -7.684,0.435 -10.185,6.601l0,-16.588Z" style="fill:#fff;"/><path d="M46.895,87.331c0,0 0.282,-8.785 18.343,-10.258c0,0 4.42,0.055 4.911,-4.747c0,0 1.746,1.855 -0.218,5.675c0,0 3.268,-1.746 2.616,-4.201c-0.652,-2.455 -6.708,-9.44 -10.473,-12.441c-3.765,-3.001 0.709,-9.876 7.748,-9.494c0,0 -10.998,5.38 4.42,17.406c0,0 7.148,6.875 -4.092,12.768c-11.24,5.893 -19.225,0.162 -23.254,10.804l0,-5.511Z" style="fill:#fff;"/></g></g></svg>